<?xml version="1.0" encoding="UTF-8"?><svg id="Layer_1" xmlns="http://www.w3.org/2000/svg" viewBox="0 0 206.56 198.29"><defs><style>.cls-1{fill:#d91b5c;stroke-width:0px;}</style></defs><path class="cls-1" d="M159.65,98.39c-1.9.41-3.88.83-5.86,1.16-1.98.5-4.13.66-6.19.66-.91,0-1.82-.5-2.31-1.24-.66-.91-1.07-1.98-1.24-3.14-.17-1.49-.5-2.97-.91-4.46-.17-.74,0-1.57.58-2.15.17-.25.33-.41.41-.58,2.72-.41,5.36-.83,8.09-1.24,1.9-.33,3.88-.66,5.78-.99.83-.17,1.65-.08,2.48-.17.66-.08,1.24-.17,1.98-.25-.74-.74-1.32-1.32-1.9-1.98-3.3-3.47-6.6-6.93-9.9-10.4-.33-.25-.41-.66-.17-.99.33-1.07,1.16-1.9,1.73-2.81.58-.66,1.4-1.07,2.31-1.16,1.16-.25,2.31-.41,3.47-.74.83-.33,1.82-.08,2.48.5.99.91,1.9,1.82,2.81,2.81.25.33.5.58.74.91l.25-.17c0-.17.08-.41,0-.58-.17-2.56,0-5.12.33-7.59.08-.41,0-.83-.08-1.24-.08-.33.08-.66.33-.74h0c.33-.17.66-.41,1.07-.58l6.68.83c.41.08.74.17,1.16.25.74.17,1.24.74,1.49,1.4.5,1.4.66,2.89.5,4.37,0,3.55,0,7.18-.08,10.73v.99c.25-.17.41-.33.66-.5,2.31-2.81,4.7-5.61,7.01-8.42l7.01-8.33c.91.5,1.9.41,2.64,1.16.66.5.91,1.32.74,2.15-.17.58,0,1.07.33,1.57.17.25.25.5.33.74.17.41,0,.91-.41,1.07h0c-.58.41-1.07.83-1.57,1.24-.25.25-.5.5-.66.83-1.4,2.89-3.63,5.2-5.53,7.76-.58.74-1.24,1.49-1.82,2.23-.25.33-.41.74-.66,1.16.91-.08,1.65-.17,2.39-.25l13.78-2.06c.41-.08.83-.33,1.07-.17.58.33.99.74,1.32,1.24.17.33.5.58.83.58,1.07.17,1.9.91,2.23,1.98.41,1.24.66,2.56.91,3.8.08.5.17.91.25,1.4.17,1.16-.25,1.57-1.4,1.73-1.98.25-4.04.41-6.02.83-4.21.83-8.42,1.73-12.63,2.56-.17,0-.25.08-.41.17.17.33.33.58.58.83,2.97,3.14,6.19,6.11,9.49,8.91.91.74,1.82,1.4,2.72,2.15.33.33.66.83.91,1.24.08.25.08.58,0,.83-1.07,2.06-2.31,4.04-4.29,5.28-.91.66-2.15.83-3.22.5-.5-.17-.91-.17-1.4,0-.5.08-.99-.08-1.24-.41-2.15-2.31-4.29-4.54-6.52-6.77-1.65-1.57-3.3-3.05-5.03-4.62-.58-.5-1.07-.99-1.82-1.73,0,1.07-.08,1.82,0,2.56.33,3.96.74,7.92,1.16,11.88.08.41.17.74.17,1.16-.17.74-.74,1.32-1.49,1.57-1.32.5-2.64.91-3.88,1.49-.66.33-1.49.25-2.15-.17-.41-.17-.74-.41-1.16-.66l-1.65-14.36c-.25.17-.41.41-.58.66-1.9,2.72-3.88,5.36-5.78,8.09-1.32,1.9-2.64,3.8-3.96,5.69-.58,1.07-1.9,1.57-3.05.99-1.82-.58-3.55-1.57-5.03-2.72-.25-.17-.41-.33-.66-.58-.66-.66-.66-1.65-.08-2.31l.08-.08c1.65-1.82,3.14-3.8,4.54-5.78,1.49-2.23,3.22-4.29,4.87-6.44.66-.91,1.32-1.9,1.98-2.81l.08-.25ZM172.69,112.25c-.17,1.07,0,2.15.5,3.14l-.5-3.14Z"/><path class="cls-1" d="M103.7,40.24c-2.06.45-4.2.89-6.35,1.25-2.15.54-4.47.72-6.71.72-.98,0-1.97-.54-2.5-1.34-.72-.98-1.16-2.15-1.34-3.4-.18-1.61-.54-3.22-.98-4.83-.18-.8,0-1.7.63-2.33.18-.27.36-.45.45-.63,2.95-.45,5.81-.89,8.76-1.34,2.06-.36,4.2-.72,6.26-1.07.89-.18,1.79-.09,2.68-.18.72-.09,1.34-.18,2.15-.27-.8-.8-1.43-1.43-2.06-2.15-3.58-3.76-7.15-7.51-10.73-11.27-.36-.27-.45-.72-.18-1.07.36-1.16,1.25-2.06,1.88-3.04.63-.72,1.52-1.16,2.5-1.25,1.25-.27,2.5-.45,3.76-.8.89-.36,1.97-.09,2.68.54,1.07.98,2.06,1.97,3.04,3.04.27.36.54.63.8.98l.27-.18c0-.18.09-.45,0-.63-.18-2.77,0-5.54.36-8.23.09-.45,0-.89-.09-1.34-.09-.36.09-.72.36-.8h0c.36-.18.72-.45,1.16-.63l7.24.89c.45.09.8.18,1.25.27.8.18,1.34.8,1.61,1.52.54,1.52.72,3.13.54,4.74,0,3.85,0,7.78-.09,11.63v1.07c.27-.18.45-.36.72-.54,2.5-3.04,5.1-6.08,7.6-9.12l7.6-9.03c.98.54,2.06.45,2.86,1.25.72.54.98,1.43.8,2.33-.18.63,0,1.16.36,1.7.18.27.27.54.36.8.18.45,0,.98-.45,1.16h0c-.63.45-1.16.89-1.7,1.34-.27.27-.54.54-.72.89-1.52,3.13-3.93,5.63-5.99,8.41-.63.8-1.34,1.61-1.97,2.41-.27.36-.45.8-.72,1.25.98-.09,1.79-.18,2.59-.27l14.93-2.24c.45-.09.89-.36,1.16-.18.63.36,1.07.8,1.43,1.34.18.36.54.63.89.63,1.16.18,2.06.98,2.41,2.15.45,1.34.72,2.77.98,4.11.09.54.18.98.27,1.52.18,1.25-.27,1.7-1.52,1.88-2.15.27-4.38.45-6.53.89-4.56.89-9.12,1.88-13.68,2.77-.18,0-.27.09-.45.18.18.36.36.63.63.89,3.22,3.4,6.71,6.62,10.28,9.66.98.8,1.97,1.52,2.95,2.33.36.36.72.89.98,1.34.09.27.09.63,0,.89-1.16,2.24-2.5,4.38-4.65,5.72-.98.72-2.33.89-3.49.54-.54-.18-.98-.18-1.52,0-.54.09-1.07-.09-1.34-.45-2.33-2.5-4.65-4.92-7.06-7.33-1.79-1.7-3.58-3.31-5.46-5.01-.63-.54-1.16-1.07-1.97-1.88,0,1.16-.09,1.97,0,2.77.36,4.29.8,8.59,1.25,12.88.09.45.18.8.18,1.25-.18.8-.8,1.43-1.61,1.7-1.43.54-2.86.98-4.2,1.61-.72.36-1.61.27-2.33-.18-.45-.18-.8-.45-1.25-.72l-1.79-15.56c-.27.18-.45.45-.63.72-2.06,2.95-4.2,5.81-6.26,8.76-1.43,2.06-2.86,4.11-4.29,6.17-.63,1.16-2.06,1.7-3.31,1.07-1.97-.63-3.85-1.7-5.46-2.95-.27-.18-.45-.36-.72-.63-.72-.72-.72-1.79-.09-2.5l.09-.09c1.79-1.97,3.4-4.11,4.92-6.26,1.61-2.41,3.49-4.65,5.28-6.98.72-.98,1.43-2.06,2.15-3.04l.09-.27ZM117.83,55.27c-.18,1.16,0,2.33.54,3.4l-.54-3.4Z"/><path class="cls-1" d="M16.57,39.58c-1.9.41-3.88.83-5.86,1.16-1.98.5-4.13.66-6.19.66-.91,0-1.82-.5-2.31-1.24-.66-.91-1.07-1.98-1.24-3.14-.17-1.49-.5-2.97-.91-4.46-.17-.74,0-1.57.58-2.15.17-.25.33-.41.41-.58,2.72-.41,5.36-.83,8.09-1.24,1.9-.33,3.88-.66,5.78-.99.83-.17,1.65-.08,2.48-.17.66-.08,1.24-.17,1.98-.25-.74-.74-1.32-1.32-1.9-1.98-3.3-3.47-6.6-6.93-9.9-10.4-.33-.25-.41-.66-.17-.99.33-1.07,1.16-1.9,1.73-2.81.58-.66,1.4-1.07,2.31-1.16,1.16-.25,2.31-.41,3.47-.74.83-.33,1.82-.08,2.48.5.99.91,1.9,1.82,2.81,2.81.25.33.5.58.74.91l.25-.17c0-.17.08-.41,0-.58-.17-2.56,0-5.12.33-7.59.08-.41,0-.83-.08-1.24-.08-.33.08-.66.33-.74h0c.33-.17.66-.41,1.07-.58l6.68.83c.41.08.74.17,1.16.25.74.17,1.24.74,1.49,1.4.5,1.4.66,2.89.5,4.37,0,3.55,0,7.18-.08,10.73v.99c.25-.17.41-.33.66-.5,2.31-2.81,4.7-5.61,7.01-8.42l7.01-8.33c.91.5,1.9.41,2.64,1.16.66.5.91,1.32.74,2.15-.17.58,0,1.07.33,1.57.17.25.25.5.33.74.17.41,0,.91-.41,1.07h0c-.58.41-1.07.83-1.57,1.24-.25.25-.5.5-.66.83-1.4,2.89-3.63,5.2-5.53,7.76-.58.74-1.24,1.49-1.82,2.23-.25.33-.41.74-.66,1.16.91-.08,1.65-.17,2.39-.25l13.78-2.06c.41-.08.83-.33,1.07-.17.58.33.99.74,1.32,1.24.17.33.5.58.83.58,1.07.17,1.9.91,2.23,1.98.41,1.24.66,2.56.91,3.8.08.5.17.91.25,1.4.17,1.16-.25,1.57-1.4,1.73-1.98.25-4.04.41-6.02.83-4.21.83-8.42,1.73-12.63,2.56-.17,0-.25.08-.41.17.17.33.33.58.58.83,2.97,3.14,6.19,6.11,9.49,8.91.91.74,1.82,1.4,2.72,2.15.33.33.66.83.91,1.24.08.25.08.58,0,.83-1.07,2.06-2.31,4.04-4.29,5.28-.91.66-2.15.83-3.22.5-.5-.17-.91-.17-1.4,0-.5.08-.99-.08-1.24-.41-2.15-2.31-4.29-4.54-6.52-6.77-1.65-1.57-3.3-3.05-5.03-4.62-.58-.5-1.07-.99-1.82-1.73,0,1.07-.08,1.82,0,2.56.33,3.96.74,7.92,1.16,11.88.08.41.17.74.17,1.16-.17.74-.74,1.32-1.49,1.57-1.32.5-2.64.91-3.88,1.49-.66.33-1.49.25-2.15-.17-.41-.17-.74-.41-1.16-.66l-1.65-14.36c-.25.17-.41.41-.58.66-1.9,2.72-3.88,5.36-5.78,8.09-1.32,1.9-2.64,3.8-3.96,5.69-.58,1.07-1.9,1.57-3.05.99-1.82-.58-3.55-1.57-5.03-2.72-.25-.17-.41-.33-.66-.58-.66-.66-.66-1.65-.08-2.31l.08-.08c1.65-1.82,3.14-3.8,4.54-5.78,1.49-2.23,3.22-4.29,4.87-6.44.66-.91,1.32-1.9,1.98-2.81l.08-.25ZM29.6,53.44c-.17,1.07,0,2.15.5,3.14l-.5-3.14Z"/><path class="cls-1" d="M29.13,135.79c-2.62.57-5.36,1.14-8.09,1.6-2.73.68-5.7.91-8.55.91-1.25,0-2.51-.68-3.19-1.71-.91-1.25-1.48-2.73-1.71-4.33-.23-2.05-.68-4.1-1.25-6.15-.23-1.03,0-2.16.8-2.96.23-.34.46-.57.57-.8,3.76-.57,7.41-1.14,11.17-1.71,2.62-.46,5.36-.91,7.98-1.37,1.14-.23,2.28-.11,3.42-.23.91-.11,1.71-.23,2.73-.34-1.03-1.03-1.82-1.82-2.62-2.73-4.56-4.79-9.12-9.57-13.67-14.36-.46-.34-.57-.91-.23-1.37.46-1.48,1.6-2.62,2.39-3.87.8-.91,1.94-1.48,3.19-1.6,1.6-.34,3.19-.57,4.79-1.03,1.14-.46,2.51-.11,3.42.68,1.37,1.25,2.62,2.51,3.87,3.87.34.46.68.8,1.03,1.25l.34-.23c0-.23.11-.57,0-.8-.23-3.53,0-7.06.46-10.48.11-.57,0-1.14-.11-1.71-.11-.46.11-.91.46-1.03h0c.46-.23.91-.57,1.48-.8l9.23,1.14c.57.11,1.03.23,1.6.34,1.03.23,1.71,1.03,2.05,1.94.68,1.94.91,3.99.68,6.04,0,4.9,0,9.91-.11,14.81v1.37c.34-.23.57-.46.91-.68,3.19-3.87,6.49-7.75,9.69-11.62l9.69-11.51c1.25.68,2.62.57,3.65,1.6.91.68,1.25,1.82,1.03,2.96-.23.8,0,1.48.46,2.16.23.34.34.68.46,1.03.23.57,0,1.25-.57,1.48h0c-.8.57-1.48,1.14-2.16,1.71-.34.34-.68.68-.91,1.14-1.94,3.99-5.01,7.18-7.63,10.71-.8,1.03-1.71,2.05-2.51,3.08-.34.46-.57,1.03-.91,1.6,1.25-.11,2.28-.23,3.3-.34l19.03-2.85c.57-.11,1.14-.46,1.48-.23.8.46,1.37,1.03,1.82,1.71.23.46.68.8,1.14.8,1.48.23,2.62,1.25,3.08,2.73.57,1.71.91,3.53,1.25,5.24.11.68.23,1.25.34,1.94.23,1.6-.34,2.16-1.94,2.39-2.73.34-5.58.57-8.32,1.14-5.81,1.14-11.62,2.39-17.43,3.53-.23,0-.34.11-.57.23.23.46.46.8.8,1.14,4.1,4.33,8.55,8.43,13.1,12.31,1.25,1.03,2.51,1.94,3.76,2.96.46.46.91,1.14,1.25,1.71.11.34.11.8,0,1.14-1.48,2.85-3.19,5.58-5.93,7.29-1.25.91-2.96,1.14-4.44.68-.68-.23-1.25-.23-1.94,0-.68.11-1.37-.11-1.71-.57-2.96-3.19-5.93-6.27-9-9.34-2.28-2.16-4.56-4.22-6.95-6.38-.8-.68-1.48-1.37-2.51-2.39,0,1.48-.11,2.51,0,3.53.46,5.47,1.03,10.94,1.6,16.41.11.57.23,1.03.23,1.6-.23,1.03-1.03,1.82-2.05,2.16-1.82.68-3.65,1.25-5.36,2.05-.91.46-2.05.34-2.96-.23-.57-.23-1.03-.57-1.6-.91l-2.28-19.83c-.34.23-.57.57-.8.91-2.62,3.76-5.36,7.41-7.98,11.17-1.82,2.62-3.65,5.24-5.47,7.86-.8,1.48-2.62,2.16-4.22,1.37-2.51-.8-4.9-2.16-6.95-3.76-.34-.23-.57-.46-.91-.8-.91-.91-.91-2.28-.11-3.19l.11-.11c2.28-2.51,4.33-5.24,6.27-7.98,2.05-3.08,4.44-5.93,6.72-8.89.91-1.25,1.82-2.62,2.73-3.87l.11-.34ZM47.13,154.93c-.23,1.48,0,2.96.68,4.33l-.68-4.33Z"/><path class="cls-1" d="M116.66,172.6c-2.3.5-4.7,1-7.1,1.4-2.4.6-5,.8-7.5.8-1.1,0-2.2-.6-2.8-1.5-.8-1.1-1.3-2.4-1.5-3.8-.2-1.8-.6-3.6-1.1-5.4-.2-.9,0-1.9.7-2.6.2-.3.4-.5.5-.7,3.3-.5,6.5-1,9.8-1.5,2.3-.4,4.7-.8,7-1.2,1-.2,2-.1,3-.2.8-.1,1.5-.2,2.4-.3-.9-.9-1.6-1.6-2.3-2.4-4-4.2-8-8.4-12-12.6-.4-.3-.5-.8-.2-1.2.4-1.3,1.4-2.3,2.1-3.4.7-.8,1.7-1.3,2.8-1.4,1.4-.3,2.8-.5,4.2-.9,1-.4,2.2-.1,3,.6,1.2,1.1,2.3,2.2,3.4,3.4.3.4.6.7.9,1.1l.3-.2c0-.2.1-.5,0-.7-.2-3.1,0-6.2.4-9.2.1-.5,0-1-.1-1.5-.1-.4.1-.8.4-.9h0c.4-.2.8-.5,1.3-.7l8.1,1c.5.1.9.2,1.4.3.9.2,1.5.9,1.8,1.7.6,1.7.8,3.5.6,5.3,0,4.3,0,8.7-.1,13v1.2c.3-.2.5-.4.8-.6,2.8-3.4,5.7-6.8,8.5-10.2l8.5-10.1c1.1.6,2.3.5,3.2,1.4.8.6,1.1,1.6.9,2.6-.2.7,0,1.3.4,1.9.2.3.3.6.4.9.2.5,0,1.1-.5,1.3h0c-.7.5-1.3,1-1.9,1.5-.3.3-.6.6-.8,1-1.7,3.5-4.4,6.3-6.7,9.4-.7.9-1.5,1.8-2.2,2.7-.3.4-.5.9-.8,1.4,1.1-.1,2-.2,2.9-.3l16.7-2.5c.5-.1,1-.4,1.3-.2.7.4,1.2.9,1.6,1.5.2.4.6.7,1,.7,1.3.2,2.3,1.1,2.7,2.4.5,1.5.8,3.1,1.1,4.6.1.6.2,1.1.3,1.7.2,1.4-.3,1.9-1.7,2.1-2.4.3-4.9.5-7.3,1-5.1,1-10.2,2.1-15.3,3.1-.2,0-.3.1-.5.2.2.4.4.7.7,1,3.6,3.8,7.5,7.4,11.5,10.8,1.1.9,2.2,1.7,3.3,2.6.4.4.8,1,1.1,1.5.1.3.1.7,0,1-1.3,2.5-2.8,4.9-5.2,6.4-1.1.8-2.6,1-3.9.6-.6-.2-1.1-.2-1.7,0-.6.1-1.2-.1-1.5-.5-2.6-2.8-5.2-5.5-7.9-8.2-2-1.9-4-3.7-6.1-5.6-.7-.6-1.3-1.2-2.2-2.1,0,1.3-.1,2.2,0,3.1.4,4.8.9,9.6,1.4,14.4.1.5.2.9.2,1.4-.2.9-.9,1.6-1.8,1.9-1.6.6-3.2,1.1-4.7,1.8-.8.4-1.8.3-2.6-.2-.5-.2-.9-.5-1.4-.8l-2-17.4c-.3.2-.5.5-.7.8-2.3,3.3-4.7,6.5-7,9.8-1.6,2.3-3.2,4.6-4.8,6.9-.7,1.3-2.3,1.9-3.7,1.2-2.2-.7-4.3-1.9-6.1-3.3-.3-.2-.5-.4-.8-.7-.8-.8-.8-2-.1-2.8l.1-.1c2-2.2,3.8-4.6,5.5-7,1.8-2.7,3.9-5.2,5.9-7.8.8-1.1,1.6-2.3,2.4-3.4l.1-.3ZM132.46,189.4c-.2,1.3,0,2.6.6,3.8l-.6-3.8Z"/></svg>