<?xml version="1.0" encoding="utf-8"?>
<!-- Generator: Adobe Illustrator 28.3.0, SVG Export Plug-In . SVG Version: 6.00 Build 0)  -->
<svg version="1.1" id="Layer_1" xmlns="http://www.w3.org/2000/svg" xmlns:xlink="http://www.w3.org/1999/xlink" x="0px" y="0px"
	 viewBox="0 0 158 237.4" style="enable-background:new 0 0 158 237.4;" xml:space="preserve">
<style type="text/css">
	.st0{fill:#D91B5C;}
</style>
<path class="st0" d="M16.2,35.1c3.2,0,6.4-0.4,9.6-0.6c2-0.1,9.8-1.2,10.9,0c1.5,1.8,4.2-0.9,2.6-2.6c-1.8-2.2-7.2-1.4-9.7-1.4
	c-4.4,0.2-8.8,0.7-13.4,0.9C13.9,31.4,13.9,35.1,16.2,35.1L16.2,35.1L16.2,35.1z"/>
<path class="st0" d="M26.5,67.2c2.8,0.4,5.6,0.5,8.3,0.6c1.8,0.1,3.7,0.2,5.4,0.4c0.6,0.1,1.3,0.1,2,0.2c0.5,0.1,1.3,0.7,0.9,0
	c1.5,1.8,4.7,0,3.2-1.8c-1.6-2.2-5-2.1-7.5-2.3c-3.8-0.4-7.6-0.1-11.4-0.7C25.2,63.2,24.2,66.8,26.5,67.2L26.5,67.2L26.5,67.2z"/>
<path class="st0" d="M2,80.6c5.1,1.6,10.8,0.5,15.9,2.2c2.3,0.7,3.2-2.8,1-3.6C13.8,77.7,8.1,78.8,3,77.1C0.7,76.3-0.2,79.9,2,80.6
	C2,80.6,2,80.6,2,80.6z"/>
<path class="st0" d="M3.6,79c3.4-15.3,9.8-29.7,16-44c1-2.2-2.2-4-3.2-1.8c-6.4,14.6-13,29.3-16.4,44.8C-0.4,80.4,3.1,81.4,3.6,79
	L3.6,79z"/>
<path class="st0" d="M28.5,65.8c3.3-10.7,6.5-21.3,13-30.5c1.3-2-1.8-3.8-3.2-1.8c-6.7,9.6-9.9,20.3-13.4,31.4
	C24.2,67.2,27.7,68.1,28.5,65.8C28.5,65.8,28.5,65.8,28.5,65.8z"/>
<path class="st0" d="M3.7,129.8c3.4-7.1,5.1-14.8,8-22.2c3.3-8.8,7.5-17.3,10.9-26c0.9-2.2-2.7-3.2-3.5-1
	c-3.2,8.2-6.7,16.2-10.1,24.3c-3.2,7.6-4.8,15.8-8.3,23.1C-0.4,130,2.7,131.8,3.7,129.8L3.7,129.8L3.7,129.8z"/>
<path class="st0" d="M4.9,128.8c13.3-20.3,28.2-39.7,41.7-60c1.3-2-1.8-3.8-3.2-1.8c-13.5,20.3-28.3,39.7-41.7,60
	C0.5,128.9,3.7,130.7,4.9,128.8L4.9,128.8z"/>
<path class="st0" d="M82,3.7c2.5,0,5-0.3,7.4-0.5c1.5-0.1,7.7-1,8.5,0c1.2,1.4,3.2-0.7,2-2c-1.4-1.7-5.6-1-7.6-1
	C89,0.3,85.5,0.7,82,0.8C80.2,0.8,80.2,3.7,82,3.7L82,3.7z"/>
<path class="st0" d="M90,28.7c2.2,0.3,4.4,0.4,6.5,0.5c1.4,0.1,2.9,0.2,4.2,0.3c0.5,0.1,1.1,0.1,1.5,0.2c0.4,0.1,1.1,0.6,0.7,0
	c1.2,1.4,3.6,0,2.5-1.4c-1.2-1.7-3.9-1.6-5.8-1.8c-3-0.3-5.9-0.1-8.9-0.6C89,25.7,88.2,28.4,90,28.7L90,28.7L90,28.7z"/>
<path class="st0" d="M70.9,39.2c4,1.2,8.4,0.4,12.4,1.7c1.8,0.6,2.5-2.2,0.8-2.8c-4-1.2-8.4-0.4-12.4-1.7
	C69.9,35.9,69.2,38.7,70.9,39.2L70.9,39.2z"/>
<path class="st0" d="M72.2,38c2.7-12,7.7-23.1,12.5-34.3c0.8-1.7-1.7-3.2-2.5-1.4c-5,11.4-10.1,22.8-12.8,35
	C69,39,71.8,39.8,72.2,38C72.2,38,72.2,38,72.2,38z"/>
<path class="st0" d="M91.6,27.6c2.6-8.3,5.1-16.6,10.1-23.8c1.1-1.5-1.4-3-2.5-1.4c-5.3,7.5-7.7,15.9-10.4,24.5
	C88.2,28.7,91,29.5,91.6,27.6C91.6,27.6,91.6,27.6,91.6,27.6z"/>
<path class="st0" d="M72.2,77.5c2.7-5.5,4-11.6,6.2-17.3C81,53.4,84.3,46.8,87,40c0.7-1.7-2.1-2.5-2.8-0.8
	c-2.5,6.4-5.3,12.6-7.8,18.9c-2.5,5.9-3.7,12.3-6.5,18.1C69,77.7,71.5,79.2,72.2,77.5L72.2,77.5z"/>
<path class="st0" d="M73.2,76.8c10.4-15.9,22-31,32.5-46.8c1.1-1.5-1.4-3-2.5-1.4c-10.5,15.9-22.1,31-32.5,46.8
	C69.8,76.9,72.3,78.3,73.2,76.8L73.2,76.8z"/>
<path class="st0" d="M124.8,35.7c3,0,6-0.3,8.9-0.6c1.8-0.1,9.2-1.2,10.2,0c1.4,1.7,3.9-0.8,2.4-2.4c-1.7-2.1-6.8-1.3-9.1-1.3
	c-4.1,0.2-8.2,0.7-12.5,0.8C122.7,32.3,122.7,35.7,124.8,35.7L124.8,35.7L124.8,35.7z"/>
<path class="st0" d="M134.5,65.8c2.6,0.3,5.3,0.5,7.8,0.6c1.7,0.1,3.4,0.2,5,0.3c0.6,0.1,1.3,0.1,1.8,0.2c0.5,0.1,1.3,0.7,0.8,0
	c1.4,1.7,4.4,0,3-1.7c-1.5-2.1-4.7-2-7-2.2c-3.6-0.3-7.1-0.1-10.7-0.7C133.2,62.1,132.3,65.4,134.5,65.8L134.5,65.8L134.5,65.8z"/>
<path class="st0" d="M111.5,78.4c4.8,1.5,10.1,0.5,14.9,2.1c2.2,0.7,3-2.6,0.9-3.3c-4.8-1.5-10.1-0.5-14.9-2.1
	C110.3,74.3,109.5,77.7,111.5,78.4L111.5,78.4z"/>
<path class="st0" d="M113,76.9c3.2-14.3,9.2-27.7,15-41.2c0.9-2.1-2.1-3.8-3-1.7c-6,13.6-12.2,27.4-15.4,41.9
	C109.2,78.1,112.6,79,113,76.9L113,76.9L113,76.9z"/>
<path class="st0" d="M136.3,64.5c3.1-10,6.1-19.9,12.1-28.5c1.3-1.8-1.7-3.5-3-1.7c-6.3,8.9-9.3,19-12.5,29.3
	C132.3,65.7,135.6,66.7,136.3,64.5L136.3,64.5z"/>
<path class="st0" d="M113.2,124.3c3.2-6.7,4.8-13.9,7.4-20.7c3.1-8.2,7-16.2,10.2-24.3c0.8-2.1-2.5-3-3.3-0.9
	c-3,7.7-6.3,15.1-9.4,22.7c-3,7.1-4.5,14.8-7.8,21.7C109.3,124.5,112.2,126.3,113.2,124.3L113.2,124.3L113.2,124.3z"/>
<path class="st0" d="M114.3,123.4c12.5-19,26.4-37.1,39-56.2c1.3-1.8-1.7-3.5-3-1.7c-12.6,19-26.5,37.1-39,56.2
	C110.2,123.5,113.1,125.2,114.3,123.4L114.3,123.4L114.3,123.4z"/>
<path class="st0" d="M52.6,95.3c2.8,0,5.6-0.3,8.3-0.5c1.7-0.1,8.6-1.1,9.5,0c1.3,1.6,3.6-0.8,2.2-2.2c-1.6-1.9-6.3-1.2-8.4-1.2
	c-3.8,0.2-7.7,0.6-11.7,0.8C50.6,92.1,50.6,95.3,52.6,95.3L52.6,95.3L52.6,95.3z"/>
<path class="st0" d="M61.6,123.3c2.5,0.3,4.9,0.4,7.3,0.5c1.6,0.1,3.2,0.2,4.7,0.3c0.5,0.1,1.2,0.1,1.7,0.2c0.4,0.1,1.2,0.6,0.8,0
	c1.3,1.6,4.1,0,2.8-1.6c-1.4-1.9-4.4-1.8-6.5-2c-3.3-0.3-6.6-0.1-9.9-0.6C60.4,119.9,59.6,123,61.6,123.3L61.6,123.3z"/>
<path class="st0" d="M40.2,135.1c4.5,1.4,9.4,0.4,13.9,1.9c2,0.6,2.8-2.5,0.8-3.1c-4.5-1.4-9.4-0.4-13.9-1.9
	C39,131.3,38.3,134.4,40.2,135.1L40.2,135.1z"/>
<path class="st0" d="M41.6,133.7c3-13.4,8.5-25.9,14-38.4c0.8-1.9-1.9-3.5-2.8-1.6c-5.6,12.7-11.3,25.5-14.3,39.1
	C38.1,134.8,41.2,135.7,41.6,133.7L41.6,133.7L41.6,133.7z"/>
<path class="st0" d="M63.3,122.1c2.9-9.3,5.7-18.6,11.3-26.6c1.2-1.7-1.6-3.3-2.8-1.6c-5.9,8.3-8.7,17.7-11.7,27.3
	C59.6,123.3,62.7,124.2,63.3,122.1C63.3,122.1,63.3,122.1,63.3,122.1z"/>
<path class="st0" d="M41.7,177.9c3-6.2,4.5-12.9,6.9-19.3c2.9-7.7,6.5-15.1,9.5-22.6c0.8-1.9-2.3-2.8-3.1-0.9
	c-2.8,7.2-5.9,14.1-8.8,21.1c-2.8,6.6-4.2,13.8-7.3,20.2C38.1,178.1,40.9,179.7,41.7,177.9L41.7,177.9L41.7,177.9z"/>
<path class="st0" d="M42.8,177.1c11.7-17.7,24.6-34.6,36.3-52.3c1.2-1.7-1.6-3.3-2.8-1.6c-11.8,17.7-24.7,34.6-36.3,52.4
	C38.9,177.2,41.7,178.8,42.8,177.1L42.8,177.1L42.8,177.1z"/>
<path class="st0" d="M88.6,148c3,0,6-0.3,8.9-0.6c1.8-0.1,9.2-1.1,10.2,0c1.4,1.7,3.9-0.8,2.4-2.4c-1.7-2.1-6.8-1.3-9.1-1.3
	c-4.1,0.2-8.2,0.7-12.5,0.8C86.4,144.5,86.4,148,88.6,148L88.6,148L88.6,148z"/>
<path class="st0" d="M98.2,178c2.6,0.3,5.3,0.5,7.8,0.6c1.7,0.1,3.4,0.2,5,0.3c0.6,0.1,1.3,0.1,1.8,0.2c0.5,0.1,1.3,0.7,0.8,0
	c1.4,1.7,4.4,0,3-1.7c-1.5-2.1-4.7-1.9-7-2.2c-3.6-0.3-7.1-0.1-10.7-0.7C96.9,174.3,96,177.6,98.2,178L98.2,178L98.2,178z"/>
<path class="st0" d="M75.2,190.6c4.8,1.5,10.1,0.5,14.9,2.1c2.2,0.7,3-2.6,0.9-3.3c-4.8-1.5-10.1-0.5-14.9-2.1
	C74,186.6,73.2,189.9,75.2,190.6L75.2,190.6z"/>
<path class="st0" d="M76.7,189.1c3.2-14.3,9.2-27.7,15-41.2c0.9-2.1-2.1-3.8-3-1.7c-6,13.6-12.2,27.4-15.4,41.9
	C72.9,190.4,76.3,191.3,76.7,189.1L76.7,189.1L76.7,189.1z"/>
<path class="st0" d="M100,176.7c3.1-10,6.1-19.9,12.2-28.5c1.3-1.8-1.7-3.6-3-1.7c-6.3,8.9-9.3,19-12.5,29.3
	C96,178,99.3,178.9,100,176.7L100,176.7z"/>
<path class="st0" d="M76.9,236.6c3.2-6.6,4.8-13.9,7.4-20.7c3.1-8.2,7-16.2,10.2-24.3c0.8-2.1-2.5-3-3.3-0.9
	c-3,7.7-6.3,15.1-9.4,22.7c-3,7.1-4.5,14.8-7.8,21.7C73,236.8,75.9,238.5,76.9,236.6L76.9,236.6L76.9,236.6z"/>
<path class="st0" d="M78,235.6c12.5-19,26.4-37.1,39-56.2c1.3-1.8-1.7-3.6-3-1.7c-12.6,19-26.5,37.1-39,56.2
	C73.9,235.8,76.8,237.5,78,235.6L78,235.6z"/>
</svg>
