<?xml version="1.0" encoding="UTF-8"?><svg id="Layer_1" xmlns="http://www.w3.org/2000/svg" viewBox="0 0 154.28 180.3"><defs><style>.cls-1{fill:#d91b5c;stroke-width:0px;}</style></defs><path class="cls-1" d="M46.78,71.3c4.4-10.5,8.5-20.1,12.5-29.8,4.9-11.5,9.7-23,14.7-34.4,2.7-6.2,3-6.1,10.5-7.1,2.9,4.9.4,9.6-1.1,13.9-5.2,14.9-10.8,29.6-16.4,44.3-2.2,5.8-4.9,11.5-7.8,18.3,3.4,1.7,6.7,3.5,10.2,5,23.7,10.5,47.4,20.9,71.1,31.4,4.8,2.1,9.3,4.6,13.8,6.8-1.4,10.2-2.1,11-10.9,7.4-26.4-10.7-52.7-21.8-79-32.8-3.3-1.4-6.6-3-11.1-5.1-13.4,30.3-26.7,60.5-40.2,91.1-4.3-1.4-6.3-4.4-4.7-9.4,3.3-10.3,6.2-20.7,10.1-30.8,6.5-16.8,13.7-33.4,20.6-50.1.9-2.1,1.7-4.1,2.7-6.6-10.2-6.1-20.1-11.9-29.8-18-3.6-2.2-7.1-4.8-10.2-7.7-1.2-1.1-2.2-4.4-1.6-5,1.3-1.3,4-2.5,5.7-2,4,1.2,7.8,3.4,11.6,5.3,9.5,5.1,19.1,10.1,29.3,15.3h0Z"/></svg>