<?xml version="1.0" encoding="utf-8"?>
<!-- Generator: Adobe Illustrator 28.3.0, SVG Export Plug-In . SVG Version: 6.00 Build 0)  -->
<svg version="1.1" id="Layer_1" xmlns="http://www.w3.org/2000/svg" xmlns:xlink="http://www.w3.org/1999/xlink" x="0px" y="0px"
	 viewBox="0 0 450 421" style="enable-background:new 0 0 450 421;" xml:space="preserve">
<style type="text/css">
	.st0{fill:#D91B5C;}
</style>
<path class="st0" d="M68.6,152.8c4.4-10.5,8.5-20.1,12.5-29.8c4.9-11.5,9.7-23,14.7-34.4c2.7-6.2,3-6.1,10.5-7.1
	c2.9,4.9,0.4,9.6-1.1,13.9c-5.2,14.9-10.8,29.6-16.4,44.3c-2.2,5.8-4.9,11.5-7.8,18.3c3.4,1.7,6.7,3.5,10.2,5
	c23.7,10.5,47.4,20.9,71.1,31.4c4.8,2.1,9.3,4.6,13.8,6.8c-1.4,10.2-2.1,11-10.9,7.4c-26.4-10.7-52.7-21.8-79-32.8
	c-3.3-1.4-6.6-3-11.1-5.1c-13.4,30.3-26.7,60.5-40.2,91.1c-4.3-1.4-6.3-4.4-4.7-9.4c3.3-10.3,6.2-20.7,10.1-30.8
	c6.5-16.8,13.7-33.4,20.6-50.1c0.9-2.1,1.7-4.1,2.7-6.6c-10.2-6.1-20.1-11.9-29.8-18c-3.6-2.2-7.1-4.8-10.2-7.7
	c-1.2-1.1-2.2-4.4-1.6-5c1.3-1.3,4-2.5,5.7-2c4,1.2,7.8,3.4,11.6,5.3C48.8,142.6,58.4,147.6,68.6,152.8L68.6,152.8z"/>
<path class="st0" d="M308,266.6c-5.7-2.2-4.7-6.2-3.3-9.9c4.4-11.7,8.7-23.4,13.7-34.8c6.6-15,13.9-29.7,20.8-44.6
	c1.1-2.3,2.1-4.7,3.6-8c-7.8-3.8-15.8-6.8-22.8-11.3c-6.7-4.3-16.6-1.9-21.4-10.3c4.2-5.5,9.4-5.3,14.5-3.6
	c8.4,2.8,16.6,6.1,24.9,9.2c3.3,1.3,6.7,2.6,10.9,4.2c6-12.7,11.8-25.1,17.6-37.5c2.5-5.4,4.6-10.9,7.5-16.1c1.4-2.5,4-4.2,6.3-6.4
	c4.9,4.9,2.6,9.3,1.3,12.9c-4.3,11.7-9.1,23.2-13.9,34.7c-2.3,5.4-4.9,10.7-7.7,16.6c2.4,1.4,4.6,2.7,6.8,3.8
	c21.4,10.7,43,21.2,64.3,32c6.5,3.3,6.3,3.7,4.4,12.7c-3.7-1.3-7.3-2.2-10.7-3.8c-20.6-9.3-41.2-18.8-61.8-28.2
	c-3-1.4-5.9-2.6-9.9-4.4C338,204.9,323.1,235.5,308,266.6L308,266.6z"/>
<path class="st0" d="M123.3,338.1c-14.4-8.3-27.8-15.8-41-23.6c-0.9-0.5-0.9-2.9-1.4-4.9c9.4-2.8,16.1,2.9,23.5,5.6
	c7.4,2.7,14.6,5.9,22.5,9.1c0.9-2.2,2-4.1,2.6-6.1c4.1-14.8,8.2-29.7,12-44.6c1.2-4.5,2.6-8,9.5-7.4c-0.2,3.8,0.2,7.3-0.5,10.5
	c-3.7,17.3-7.7,34.5-11.7,52.4c12.1,5.7,24.5,11.5,36.9,17.3c3.9,1.8,7.8,3.5,11.5,5.7c5.5,3.2,5.4,3.4,2.1,11.9
	c-18.4-5.6-35.5-14.9-54.6-21.9c-7.4,19.9-14.6,39.8-27.1,57.1c-6.9-4.8-7-4.8-4.3-11.1c5.4-13,10.9-26,16.3-39.1
	C121,345.3,122.1,341.5,123.3,338.1z"/>
<path class="st0" d="M221.4,306.5c-8.2-4.3-8.6-4.4-6.7-11.4c5.2-19,10.8-37.8,16.4-56.7c1.3-4.4,2.7-8.7,4.1-12.9
	c-9.9-10.2-25.3-11.4-34-22.3c3.2-4.9,6.8-3.9,10.1-2.4c7.2,3.3,14.2,6.8,21.3,10.2c2.1,1,4.1,2,6.7,3.2c3.9-9.3,7.6-18.2,11.6-27
	c2.8-6.2,3.7-6.3,10.9-4.5c-1.3,13.1-7.8,24.7-11.1,37.8c8.3,5.6,16.4,11.1,24.4,16.6c2.2,1.5,4.3,3.1,6.3,4.8
	c2.7,2.3,2.7,4.9,0,8.5c-12-4.6-21.7-13.9-34.3-19.1c-1.1,2.7-2.2,5-3,7.3c-6.2,19.4-12.4,38.7-18.7,58.1
	C224.2,300.1,222.7,303.2,221.4,306.5L221.4,306.5z"/>
<path class="st0" d="M207.2,155c-8.9-4.7-9.4-4.8-7.3-12.4c5.7-20.7,11.8-41.2,17.8-61.8c1.4-4.8,3-9.4,4.4-14
	c-10.8-11.1-27.5-12.4-37-24.2c3.5-5.3,7.3-4.3,11-2.6c7.8,3.5,15.5,7.4,23.2,11.1c2.2,1.1,4.4,2.2,7.3,3.5
	c4.3-10.1,8.2-19.9,12.7-29.4c3.1-6.7,4-6.9,11.9-4.9c-1.4,14.2-8.5,26.9-12.1,41.2c9,6.1,17.8,12.1,26.6,18.1
	c2.3,1.6,4.7,3.3,6.8,5.2c3,2.5,2.9,5.4,0,9.3c-13.1-5-23.6-15.1-37.3-20.8c-1.2,2.9-2.4,5.4-3.3,8c-6.8,21.1-13.5,42.2-20.3,63.2
	C210.3,148,208.6,151.4,207.2,155L207.2,155z"/>
</svg>
