<?xml version="1.0" encoding="utf-8"?>
<!-- Generator: Adobe Illustrator 28.3.0, SVG Export Plug-In . SVG Version: 6.00 Build 0)  -->
<svg version="1.1" id="Layer_1" xmlns="http://www.w3.org/2000/svg" xmlns:xlink="http://www.w3.org/1999/xlink" x="0px" y="0px"
	 viewBox="0 0 100 90.5" style="enable-background:new 0 0 100 90.5;" xml:space="preserve">
<style type="text/css">
	.st0{fill:#D91B5C;}
</style>
<path class="st0" d="M51,24.5c2.2-3.2,4.3-6.6,6.6-9.7c2.6-3.4,5.9-6.2,9.6-8.3c6.7-3.8,16.2-2.2,21,3.9c4.5,5.8,4.6,12.6,3.7,18.2
	c-1.1,6.5-3.6,12.7-7.4,18.1c-3.9,5.4-8.6,9.9-13.2,14.6c-4.8,4.8-14.2,14.1-16.7,20c-1,2.3-1.6,5.1-3.1,5.2s-2.1-1.8-2.8-3.3
	c-2.1-4.4-4-7.4-6.4-11.7s-6.1-7.2-9.5-10.5c-4.3-4.3-8.9-8.3-12.9-12.9c-4.5-5-7.9-10.9-9.8-17.4C7.8,22.7,8,15.1,13.4,8.3
	c2.9-3.7,6.4-6.2,11.7-6.4c6.8-0.3,11.6,0.1,16.7,5.6C46.2,12.4,49.8,18.7,51,24.5z M54.6,45.2C54,45,46.8,42.6,42,40.5
	c-1.9-0.8-1.1-3.6,0.5-4.5c1.8-1,3-1.5,4.9-2.3c1.2-0.6,1.6-1.1,1.6-2.2c0-1.1-0.2-2.2-0.5-3.2c-1.1-5.7-3.3-11.2-6.6-16
	c-3.1-4.5-8.3-7.5-15.6-7c-4.4,0.3-8.7,3.1-11.8,7.6c-3.5,5-2.6,10.2-0.9,15.8c1.3,4.2,3.1,8.2,5.4,12c4.1,6.9,10.1,12.2,16.1,17.5
	c4.8,4.2,9.4,8.6,12.4,14.4c0.5,1,1.4,3.1,2.1,4.2c1-2.4,1.6-5.7,2.6-7.9c-3.4,0.7-4,0.2-4.6-0.9s0.2-2.2,0.8-3.2
	c1.2-1.9,2.8-4.1,4-6.2c-2.6-0.6-4.8-1-7.5-1.8c-1.4-0.4-2-1.1-2.2-2.1c0.1-1.3,0.7-2.5,1.8-3.2C45.3,51,51.7,47,54.6,45.2z
	 M45.6,38.4c3.4,1.2,10.6,3.7,13.8,5c1.2,0.5,1.6,1.2,1.4,2.1c-0.2,0.7-0.7,1.3-1.3,1.7c-3.2,1.9-10.5,6.5-11,6.9
	c2.8,0.5,5.5,1.1,8.2,1.9c1.5,0.4,1.1,2.6,0.2,3.9c-1.9,2.6-2.3,3.4-4,5.8c1.5,0.3,4,0.4,4,2.2c0,1.3-3.6,7.9-4.2,9.4
	c2-2.4,9.2-12.3,12.1-15.2c5.6-5.8,11.4-11.3,16.3-17.7c6.6-8.7,7-15.5,6.9-23.5c-0.1-5.5-2.7-9.2-6.2-11.1
	C77.8,7.6,73,7.5,69.1,9.7C62.2,13.8,56.9,20.1,54,27.6c-0.8,2-0.6,3.7-1.5,6.4C52,35.3,48.4,37.4,45.6,38.4L45.6,38.4z"/>
</svg>
