<?xml version="1.0" encoding="UTF-8"?><svg id="Layer_1" xmlns="http://www.w3.org/2000/svg" viewBox="0 0 257.2 206.03"><defs><style>.cls-1{fill:#d91b5c;stroke-width:0px;}</style></defs><path class="cls-1" d="M52.29,27.31c2.65-3.85,5.18-7.95,7.95-11.68,3.13-4.1,7.11-7.47,11.56-10,8.07-4.58,19.51-2.65,25.3,4.7,5.42,6.99,5.54,15.18,4.46,21.92-1.33,7.83-4.34,15.3-8.91,21.8-4.7,6.5-10.36,11.93-15.9,17.59-5.78,5.78-17.1,16.98-20.12,24.09-1.2,2.77-1.93,6.14-3.73,6.26s-2.53-2.17-3.37-3.98c-2.53-5.3-4.82-8.91-7.71-14.09s-7.35-8.67-11.44-12.65c-5.18-5.18-10.72-10-15.54-15.54-5.42-6.02-9.52-13.13-11.8-20.96C.25,25.14.49,15.99,7,7.8,10.49,3.34,14.71.33,21.09.09c8.19-.36,13.97.12,20.12,6.75,5.3,5.9,9.64,13.49,11.08,20.48ZM56.62,52.25c-.72-.24-9.4-3.13-15.18-5.66-2.29-.96-1.33-4.34.6-5.42,2.17-1.2,3.61-1.81,5.9-2.77,1.45-.72,1.93-1.33,1.93-2.65s-.24-2.65-.6-3.85c-1.33-6.87-3.98-13.49-7.95-19.27-3.73-5.42-10-9.03-18.79-8.43-5.3.36-10.48,3.73-14.21,9.15-4.22,6.02-3.13,12.29-1.08,19.03,1.57,5.06,3.73,9.88,6.5,14.45,4.94,8.31,12.17,14.7,19.39,21.08,5.78,5.06,11.32,10.36,14.94,17.35.6,1.2,1.69,3.73,2.53,5.06,1.2-2.89,1.93-6.87,3.13-9.52-4.1.84-4.82.24-5.54-1.08s.24-2.65.96-3.85c1.45-2.29,3.37-4.94,4.82-7.47-3.13-.72-5.78-1.2-9.03-2.17-1.69-.48-2.41-1.33-2.65-2.53.12-1.57.84-3.01,2.17-3.85.96-.6,8.67-5.42,12.17-7.59ZM45.78,44.05c4.1,1.45,12.77,4.46,16.62,6.02,1.45.6,1.93,1.45,1.69,2.53-.24.84-.84,1.57-1.57,2.05-3.85,2.29-12.65,7.83-13.25,8.31,3.37.6,6.63,1.33,9.88,2.29,1.81.48,1.33,3.13.24,4.7-2.29,3.13-2.77,4.1-4.82,6.99,1.81.36,4.82.48,4.82,2.65,0,1.57-4.34,9.52-5.06,11.32,2.41-2.89,11.08-14.82,14.58-18.31,6.75-6.99,13.73-13.61,19.63-21.32,7.95-10.48,8.43-18.67,8.31-28.31-.12-6.63-3.25-11.08-7.47-13.37-4.82-2.65-10.6-2.77-15.3-.12-8.31,4.94-14.7,12.53-18.19,21.56-.96,2.41-.72,4.46-1.81,7.71-.6,1.57-4.94,4.1-8.31,5.3h0Z"/><path class="cls-1" d="M130.85,154.99c1.81-2.63,3.54-5.43,5.43-7.98,2.14-2.8,4.86-5.1,7.9-6.83,5.52-3.13,13.34-1.81,17.29,3.21,3.7,4.77,3.79,10.37,3.05,14.98-.91,5.35-2.96,10.45-6.09,14.9-3.21,4.45-7.08,8.15-10.87,12.02-3.95,3.95-11.69,11.61-13.75,16.46-.82,1.89-1.32,4.2-2.55,4.28s-1.73-1.48-2.3-2.72c-1.73-3.62-3.29-6.09-5.27-9.63s-5.02-5.93-7.82-8.64c-3.54-3.54-7.33-6.83-10.62-10.62-3.7-4.12-6.5-8.97-8.07-14.32-1.89-6.59-1.73-12.84,2.72-18.44,2.39-3.05,5.27-5.1,9.63-5.27,5.6-.25,9.55.08,13.75,4.61,3.62,4.03,6.59,9.22,7.57,13.99ZM133.82,172.03c-.49-.16-6.42-2.14-10.37-3.87-1.56-.66-.91-2.96.41-3.7,1.48-.82,2.47-1.23,4.03-1.89.99-.49,1.32-.91,1.32-1.81s-.16-1.81-.41-2.63c-.91-4.69-2.72-9.22-5.43-13.17-2.55-3.7-6.83-6.17-12.84-5.76-3.62.25-7.16,2.55-9.71,6.26-2.88,4.12-2.14,8.4-.74,13.01,1.07,3.46,2.55,6.75,4.45,9.88,3.38,5.68,8.31,10.04,13.25,14.41,3.95,3.46,7.74,7.08,10.21,11.85.41.82,1.15,2.55,1.73,3.46.82-1.98,1.32-4.69,2.14-6.5-2.8.58-3.29.16-3.79-.74s.16-1.81.66-2.63c.99-1.56,2.3-3.38,3.29-5.1-2.14-.49-3.95-.82-6.17-1.48-1.15-.33-1.65-.91-1.81-1.73.08-1.07.58-2.06,1.48-2.63.66-.41,5.93-3.7,8.31-5.19ZM126.41,166.43c2.8.99,8.73,3.05,11.36,4.12.99.41,1.32.99,1.15,1.73-.16.58-.58,1.07-1.07,1.4-2.63,1.56-8.64,5.35-9.05,5.68,2.3.41,4.53.91,6.75,1.56,1.23.33.91,2.14.16,3.21-1.56,2.14-1.89,2.8-3.29,4.77,1.23.25,3.29.33,3.29,1.81,0,1.07-2.96,6.5-3.46,7.74,1.65-1.98,7.57-10.13,9.96-12.51,4.61-4.77,9.38-9.3,13.42-14.57,5.43-7.16,5.76-12.76,5.68-19.34-.08-4.53-2.22-7.57-5.1-9.14-3.29-1.81-7.24-1.89-10.45-.08-5.68,3.38-10.04,8.56-12.43,14.73-.66,1.65-.49,3.05-1.23,5.27-.41,1.07-3.38,2.8-5.68,3.62h0Z"/><path class="cls-1" d="M144.34,60.57c2.2-3.2,4.3-6.6,6.6-9.7,2.6-3.4,5.9-6.2,9.6-8.3,6.7-3.8,16.2-2.2,21,3.9,4.5,5.8,4.6,12.6,3.7,18.2-1.1,6.5-3.6,12.7-7.4,18.1-3.9,5.4-8.6,9.9-13.2,14.6-4.8,4.8-14.2,14.1-16.7,20-1,2.3-1.6,5.1-3.1,5.2s-2.1-1.8-2.8-3.3c-2.1-4.4-4-7.4-6.4-11.7s-6.1-7.2-9.5-10.5c-4.3-4.3-8.9-8.3-12.9-12.9-4.5-5-7.9-10.9-9.8-17.4-2.3-8-2.1-15.6,3.3-22.4,2.9-3.7,6.4-6.2,11.7-6.4,6.8-.3,11.6.1,16.7,5.6,4.4,4.9,8,11.2,9.2,17ZM147.94,81.27c-.6-.2-7.8-2.6-12.6-4.7-1.9-.8-1.1-3.6.5-4.5,1.8-1,3-1.5,4.9-2.3,1.2-.6,1.6-1.1,1.6-2.2s-.2-2.2-.5-3.2c-1.1-5.7-3.3-11.2-6.6-16-3.1-4.5-8.3-7.5-15.6-7-4.4.3-8.7,3.1-11.8,7.6-3.5,5-2.6,10.2-.9,15.8,1.3,4.2,3.1,8.2,5.4,12,4.1,6.9,10.1,12.2,16.1,17.5,4.8,4.2,9.4,8.6,12.4,14.4.5,1,1.4,3.1,2.1,4.2,1-2.4,1.6-5.7,2.6-7.9-3.4.7-4,.2-4.6-.9s.2-2.2.8-3.2c1.2-1.9,2.8-4.1,4-6.2-2.6-.6-4.8-1-7.5-1.8-1.4-.4-2-1.1-2.2-2.1.1-1.3.7-2.5,1.8-3.2.8-.5,7.2-4.5,10.1-6.3ZM138.94,74.47c3.4,1.2,10.6,3.7,13.8,5,1.2.5,1.6,1.2,1.4,2.1-.2.7-.7,1.3-1.3,1.7-3.2,1.9-10.5,6.5-11,6.9,2.8.5,5.5,1.1,8.2,1.9,1.5.4,1.1,2.6.2,3.9-1.9,2.6-2.3,3.4-4,5.8,1.5.3,4,.4,4,2.2,0,1.3-3.6,7.9-4.2,9.4,2-2.4,9.2-12.3,12.1-15.2,5.6-5.8,11.4-11.3,16.3-17.7,6.6-8.7,7-15.5,6.9-23.5-.1-5.5-2.7-9.2-6.2-11.1-4-2.2-8.8-2.3-12.7-.1-6.9,4.1-12.2,10.4-15.1,17.9-.8,2-.6,3.7-1.5,6.4-.5,1.3-4.1,3.4-6.9,4.4h0Z"/><path class="cls-1" d="M215.86,132.2c2.2-3.2,4.3-6.6,6.6-9.7,2.6-3.4,5.9-6.2,9.6-8.3,6.7-3.8,16.2-2.2,21,3.9,4.5,5.8,4.6,12.6,3.7,18.2-1.1,6.5-3.6,12.7-7.4,18.1-3.9,5.4-8.6,9.9-13.2,14.6-4.8,4.8-14.2,14.1-16.7,20-1,2.3-1.6,5.1-3.1,5.2s-2.1-1.8-2.8-3.3c-2.1-4.4-4-7.4-6.4-11.7s-6.1-7.2-9.5-10.5c-4.3-4.3-8.9-8.3-12.9-12.9-4.5-5-7.9-10.9-9.8-17.4-2.3-8-2.1-15.6,3.3-22.4,2.9-3.7,6.4-6.2,11.7-6.4,6.8-.3,11.6.1,16.7,5.6,4.4,4.9,8,11.2,9.2,17ZM219.46,152.9c-.6-.2-7.8-2.6-12.6-4.7-1.9-.8-1.1-3.6.5-4.5,1.8-1,3-1.5,4.9-2.3,1.2-.6,1.6-1.1,1.6-2.2s-.2-2.2-.5-3.2c-1.1-5.7-3.3-11.2-6.6-16-3.1-4.5-8.3-7.5-15.6-7-4.4.3-8.7,3.1-11.8,7.6-3.5,5-2.6,10.2-.9,15.8,1.3,4.2,3.1,8.2,5.4,12,4.1,6.9,10.1,12.2,16.1,17.5,4.8,4.2,9.4,8.6,12.4,14.4.5,1,1.4,3.1,2.1,4.2,1-2.4,1.6-5.7,2.6-7.9-3.4.7-4,.2-4.6-.9s.2-2.2.8-3.2c1.2-1.9,2.8-4.1,4-6.2-2.6-.6-4.8-1-7.5-1.8-1.4-.4-2-1.1-2.2-2.1.1-1.3.7-2.5,1.8-3.2.8-.5,7.2-4.5,10.1-6.3ZM210.46,146.1c3.4,1.2,10.6,3.7,13.8,5,1.2.5,1.6,1.2,1.4,2.1-.2.7-.7,1.3-1.3,1.7-3.2,1.9-10.5,6.5-11,6.9,2.8.5,5.5,1.1,8.2,1.9,1.5.4,1.1,2.6.2,3.9-1.9,2.6-2.3,3.4-4,5.8,1.5.3,4,.4,4,2.2,0,1.3-3.6,7.9-4.2,9.4,2-2.4,9.2-12.3,12.1-15.2,5.6-5.8,11.4-11.3,16.3-17.7,6.6-8.7,7-15.5,6.9-23.5-.1-5.5-2.7-9.2-6.2-11.1-4-2.2-8.8-2.3-12.7-.1-6.9,4.1-12.2,10.4-15.1,17.9-.8,2-.6,3.7-1.5,6.4-.5,1.3-4.1,3.4-6.9,4.4h0Z"/><path class="cls-1" d="M46.22,130.34c2.4-3.52,4.7-7.25,7.21-10.66,2.84-3.74,6.45-6.81,10.49-9.12,7.32-4.17,17.71-2.42,22.95,4.28,4.92,6.37,5.03,13.84,4.04,19.99-1.2,7.14-3.93,13.95-8.09,19.88-4.26,5.93-9.4,10.88-14.43,16.04-5.25,5.27-15.52,15.49-18.25,21.97-1.09,2.53-1.75,5.6-3.39,5.71s-2.3-1.98-3.06-3.63c-2.3-4.83-4.37-8.13-7-12.85s-6.67-7.91-10.38-11.54c-4.7-4.72-9.73-9.12-14.1-14.17-4.92-5.49-8.63-11.97-10.71-19.12-2.51-8.79-2.3-17.14,3.61-24.61,3.17-4.06,7-6.81,12.79-7.03,7.43-.33,12.68.11,18.25,6.15,4.81,5.38,8.74,12.3,10.06,18.68ZM50.16,153.08c-.66-.22-8.53-2.86-13.77-5.16-2.08-.88-1.2-3.95.55-4.94,1.97-1.1,3.28-1.65,5.36-2.53,1.31-.66,1.75-1.21,1.75-2.42s-.22-2.42-.55-3.52c-1.2-6.26-3.61-12.3-7.21-17.58-3.39-4.94-9.07-8.24-17.05-7.69-4.81.33-9.51,3.41-12.9,8.35-3.83,5.49-2.84,11.21-.98,17.36,1.42,4.61,3.39,9.01,5.9,13.18,4.48,7.58,11.04,13.4,17.6,19.23,5.25,4.61,10.27,9.45,13.55,15.82.55,1.1,1.53,3.41,2.3,4.61,1.09-2.64,1.75-6.26,2.84-8.68-3.72.77-4.37.22-5.03-.99s.22-2.42.87-3.52c1.31-2.09,3.06-4.5,4.37-6.81-2.84-.66-5.25-1.1-8.2-1.98-1.53-.44-2.19-1.21-2.4-2.31.11-1.43.77-2.75,1.97-3.52.87-.55,7.87-4.94,11.04-6.92ZM40.32,145.61c3.72,1.32,11.59,4.06,15.08,5.49,1.31.55,1.75,1.32,1.53,2.31-.22.77-.77,1.43-1.42,1.87-3.5,2.09-11.48,7.14-12.02,7.58,3.06.55,6.01,1.21,8.96,2.09,1.64.44,1.2,2.86.22,4.28-2.08,2.86-2.51,3.74-4.37,6.37,1.64.33,4.37.44,4.37,2.42,0,1.43-3.93,8.68-4.59,10.33,2.19-2.64,10.06-13.51,13.23-16.7,6.12-6.37,12.46-12.41,17.82-19.44,7.21-9.56,7.65-17.03,7.54-25.82-.11-6.04-2.95-10.11-6.78-12.19-4.37-2.42-9.62-2.53-13.88-.11-7.54,4.5-13.33,11.43-16.5,19.66-.87,2.2-.66,4.06-1.64,7.03-.55,1.43-4.48,3.74-7.54,4.83h0Z"/></svg>