<?xml version="1.0" encoding="UTF-8"?><svg id="Layer_1" xmlns="http://www.w3.org/2000/svg" viewBox="0 0 334.27 335"><defs><style>.cls-1{fill:#d91b5c;stroke-width:0px;}</style></defs><path class="cls-1" d="M187.22,152.08c13.85,0,15.49.05,20.97.3,14.06.64,20.63,7.31,21.27,21.27.25,5.47.3,7.11.3,20.96s-.05,15.49-.3,20.96c-.64,13.94-7.19,20.63-21.27,21.27-5.47.25-7.11.3-20.97.3s-15.49-.05-20.96-.3c-14.09-.64-20.63-7.34-21.27-21.27-.25-5.47-.3-7.11-.3-20.96s.06-15.49.3-20.96c.64-13.95,7.19-20.63,21.27-21.27,5.47-.25,7.11-.3,20.96-.3ZM187.22,142.73c-14.09,0-15.85.06-21.39.31-18.84.86-29.31,11.32-30.17,30.17-.26,5.54-.32,7.3-.32,21.39s.06,15.86.31,21.39c.86,18.84,11.32,29.31,30.17,30.17,5.54.25,7.3.31,21.39.31s15.86-.06,21.39-.31c18.82-.86,29.32-11.32,30.17-30.17.26-5.53.32-7.3.32-21.39s-.06-15.85-.31-21.39c-.85-18.82-11.31-29.31-30.17-30.17-5.54-.26-7.31-.32-21.39-.32ZM187.22,167.97c-14.71,0-26.64,11.93-26.64,26.64s11.93,26.64,26.64,26.64,26.64-11.93,26.64-26.64-11.93-26.64-26.64-26.64ZM187.22,211.9c-9.55,0-17.29-7.74-17.29-17.29s7.74-17.29,17.29-17.29,17.29,7.74,17.29,17.29-7.74,17.29-17.29,17.29ZM214.91,160.69c-3.44,0-6.23,2.79-6.23,6.23s2.79,6.23,6.23,6.23,6.22-2.79,6.22-6.23-2.78-6.23-6.22-6.23Z"/><path class="cls-1" d="M57.01,101.13c15.22,0,17.03.06,23.04.33,15.45.7,22.67,8.03,23.37,23.37.28,6.01.33,7.82.33,23.04s-.06,17.03-.33,23.04c-.71,15.32-7.91,22.67-23.37,23.37-6.01.28-7.81.33-23.04.33s-17.03-.06-23.04-.33c-15.49-.71-22.67-8.07-23.37-23.38-.28-6.01-.33-7.81-.33-23.04s.06-17.02.33-23.04c.71-15.33,7.91-22.67,23.37-23.37,6.01-.27,7.82-.33,23.04-.33ZM57.01,90.85c-15.48,0-17.42.07-23.5.34C12.8,92.14,1.3,103.63.35,124.36c-.28,6.09-.35,8.02-.35,23.51s.07,17.43.34,23.51c.95,20.71,12.44,32.21,33.16,33.16,6.09.28,8.02.34,23.51.34s17.43-.07,23.51-.34c20.69-.95,32.22-12.44,33.16-33.16.28-6.08.35-8.02.35-23.51s-.07-17.42-.34-23.5c-.93-20.69-12.43-32.21-33.16-33.16-6.09-.28-8.03-.35-23.51-.35ZM57.01,118.59c-16.17,0-29.28,13.11-29.28,29.28s13.11,29.28,29.28,29.28,29.28-13.11,29.28-29.28-13.11-29.28-29.28-29.28ZM57.01,166.87c-10.5,0-19-8.5-19-19s8.51-19,19-19,19,8.51,19,19-8.51,19-19,19ZM87.45,110.59c-3.78,0-6.85,3.06-6.85,6.84s3.06,6.84,6.85,6.84,6.84-3.06,6.84-6.84-3.06-6.84-6.84-6.84Z"/><path class="cls-1" d="M174.35,8.58c12.71,0,14.21.05,19.23.28,12.9.59,18.92,6.71,19.51,19.51.23,5.02.27,6.52.27,19.23s-.05,14.21-.27,19.23c-.59,12.79-6.6,18.92-19.51,19.51-5.02.23-6.52.28-19.23.28s-14.21-.05-19.23-.28c-12.93-.59-18.92-6.74-19.51-19.51-.23-5.02-.28-6.52-.28-19.23s.05-14.21.28-19.23c.59-12.8,6.6-18.92,19.51-19.51,5.02-.23,6.52-.27,19.23-.27ZM174.35,0c-12.92,0-14.54.06-19.62.29-17.28.79-26.89,10.38-27.68,27.68-.23,5.08-.29,6.7-.29,19.62s.06,14.55.29,19.62c.79,17.28,10.38,26.89,27.68,27.68,5.08.23,6.7.29,19.62.29s14.55-.06,19.62-.29c17.27-.79,26.89-10.38,27.67-27.68.23-5.08.29-6.7.29-19.62s-.06-14.54-.29-19.62c-.78-17.27-10.38-26.89-27.67-27.68C188.9.06,187.28,0,174.35,0ZM174.35,23.15c-13.49,0-24.43,10.94-24.43,24.43s10.94,24.44,24.43,24.44,24.43-10.94,24.43-24.44-10.94-24.43-24.43-24.43ZM174.35,63.45c-8.76,0-15.86-7.1-15.86-15.86s7.1-15.86,15.86-15.86,15.86,7.1,15.86,15.86-7.1,15.86-15.86,15.86ZM199.76,16.48c-3.16,0-5.71,2.56-5.71,5.71s2.56,5.71,5.71,5.71,5.71-2.56,5.71-5.71-2.55-5.71-5.71-5.71Z"/><path class="cls-1" d="M80.6,248.41c12.71,0,14.21.05,19.23.28,12.9.59,18.92,6.71,19.51,19.51.23,5.02.27,6.52.27,19.23s-.05,14.21-.27,19.23c-.59,12.79-6.6,18.92-19.51,19.51-5.02.23-6.52.28-19.23.28s-14.21-.05-19.23-.28c-12.93-.59-18.92-6.74-19.51-19.51-.23-5.02-.28-6.52-.28-19.23s.05-14.21.28-19.23c.59-12.8,6.6-18.92,19.51-19.51,5.02-.23,6.52-.27,19.23-.27ZM80.6,239.83c-12.92,0-14.54.06-19.62.29-17.28.79-26.89,10.38-27.68,27.68-.23,5.08-.29,6.7-.29,19.62s.06,14.55.29,19.62c.79,17.28,10.38,26.89,27.68,27.68,5.08.23,6.7.29,19.62.29s14.55-.06,19.62-.29c17.27-.79,26.89-10.38,27.67-27.68.23-5.08.29-6.7.29-19.62s-.06-14.54-.29-19.62c-.78-17.27-10.38-26.89-27.67-27.68-5.08-.23-6.7-.29-19.62-.29ZM80.6,262.98c-13.49,0-24.43,10.94-24.43,24.43s10.94,24.44,24.43,24.44,24.43-10.94,24.43-24.44-10.94-24.43-24.43-24.43ZM80.6,303.28c-8.76,0-15.86-7.1-15.86-15.86s7.1-15.86,15.86-15.86,15.86,7.1,15.86,15.86-7.1,15.86-15.86,15.86ZM106,256.31c-3.16,0-5.71,2.56-5.71,5.71s2.56,5.71,5.71,5.71,5.71-2.56,5.71-5.71-2.55-5.71-5.71-5.71Z"/><path class="cls-1" d="M286.68,62.12c12.71,0,14.21.05,19.23.28,12.9.59,18.92,6.71,19.51,19.51.23,5.02.27,6.52.27,19.23s-.05,14.21-.27,19.23c-.59,12.79-6.6,18.92-19.51,19.51-5.02.23-6.52.28-19.23.28s-14.21-.05-19.23-.28c-12.93-.59-18.92-6.74-19.51-19.51-.23-5.02-.28-6.52-.28-19.23s.05-14.21.28-19.23c.59-12.8,6.6-18.92,19.51-19.51,5.02-.23,6.52-.27,19.23-.27ZM286.68,53.55c-12.92,0-14.54.06-19.62.29-17.28.79-26.89,10.38-27.68,27.68-.23,5.08-.29,6.7-.29,19.62s.06,14.55.29,19.62c.79,17.28,10.38,26.89,27.68,27.68,5.08.23,6.7.29,19.62.29s14.55-.06,19.62-.29c17.27-.79,26.89-10.38,27.67-27.68.23-5.08.29-6.7.29-19.62s-.06-14.54-.29-19.62c-.78-17.27-10.38-26.89-27.67-27.68-5.08-.23-6.7-.29-19.62-.29ZM286.68,76.7c-13.49,0-24.43,10.94-24.43,24.43s10.94,24.44,24.43,24.44,24.43-10.94,24.43-24.44-10.94-24.43-24.43-24.43ZM286.68,116.99c-8.76,0-15.86-7.1-15.86-15.86s7.1-15.86,15.86-15.86,15.86,7.1,15.86,15.86-7.1,15.86-15.86,15.86ZM312.08,70.02c-3.16,0-5.71,2.56-5.71,5.71s2.56,5.71,5.71,5.71,5.71-2.56,5.71-5.71-2.55-5.71-5.71-5.71Z"/></svg>